<?xml version="1.0" standalone="no"?>
<!DOCTYPE svg PUBLIC "-//W3C//DTD SVG 20010904//EN"
 "http://www.w3.org/TR/2001/REC-SVG-20010904/DTD/svg10.dtd">
<svg version="1.0" xmlns="http://www.w3.org/2000/svg"
 width="15.000000pt" height="15.000000pt" viewBox="0 0 500.000000 500.000000"
 preserveAspectRatio="xMidYMid meet">

<g transform="translate(0.000000,500.000000) scale(0.100000,-0.100000)"
fill="#FCA311" stroke="none">
<path d="M2998 3927 c-102 -104 -250 -316 -301 -429 l-26 -58 105 0 c203 0
419 -36 635 -106 107 -34 500 -214 537 -245 9 -8 47 -33 83 -57 36 -23 99 -67
138 -96 l72 -54 72 43 c40 25 99 60 132 80 33 19 66 39 74 44 11 7 8 25 -19
102 -18 52 -51 135 -72 184 -22 50 -48 110 -57 135 -32 81 -198 315 -308 433
-49 53 -70 57 -116 24 -18 -13 -117 -72 -220 -132 l-189 -108 -26 22 c-128
101 -325 215 -427 245 l-46 14 -41 -41z"/>
<path d="M950 3893 c-120 -132 -289 -378 -326 -477 -12 -34 -36 -92 -52 -131
-46 -111 -84 -229 -75 -232 4 -2 36 -20 70 -41 106 -65 205 -123 301 -180 l94
-54 -6 -42 c-15 -107 -18 -334 -6 -427 l12 -98 87 -20 c47 -11 124 -25 171
-31 85 -12 376 -18 385 -8 3 3 -13 34 -35 69 -71 114 -99 175 -160 354 -97
289 -130 486 -130 786 0 158 12 346 25 406 4 18 -14 32 -135 102 -76 45 -145
81 -153 81 -8 0 -38 -26 -67 -57z"/>
<path d="M2433 2889 c-80 -15 -134 -48 -208 -123 -53 -53 -78 -88 -92 -127
-42 -112 -38 -223 12 -325 30 -62 118 -152 182 -186 93 -50 221 -59 323 -23
93 33 210 150 247 248 23 59 22 207 -1 271 -33 90 -126 190 -221 239 -34 17
-134 38 -174 36 -14 -1 -45 -5 -68 -10z"/>
<path d="M3238 1859 c-55 -88 -108 -181 -108 -188 0 -4 -29 -46 -63 -92 -57
-75 -189 -211 -347 -356 -61 -56 -236 -183 -254 -183 -6 -1 -47 -23 -91 -50
-95 -59 -202 -114 -308 -160 l-77 -34 2 -170 3 -170 50 -13 c262 -68 678 -68
940 0 l50 13 3 276 2 276 58 21 c128 49 302 149 406 234 l30 24 -18 64 c-10
35 -26 82 -36 104 -10 22 -32 74 -50 115 -33 77 -126 246 -159 289 l-18 24
-15 -24z"/>
</g>
</svg>
